/vscmnt/brussel_pixiu_data/_data_brussel/112/vsc11236/PredSimResults/SUBJ09mtu3D/worker7.mot
version=1
nRows=5
nColumns=50
inDegrees=yes
endheader
                time	         pelvis_tilt	         pelvis_list	     pelvis_rotation	           pelvis_tx	           pelvis_ty	           pelvis_tz	       hip_flexion_r	     hip_adduction_r	      hip_rotation_r	        knee_angle_r	       ankle_angle_r	         mtp_angle_r	       hip_flexion_l	     hip_adduction_l	      hip_rotation_l	        knee_angle_l	       ankle_angle_l	         mtp_angle_l	    lumbar_extension	      lumbar_bending	     lumbar_rotation	 ercspn_r/activation	 intobl_r/activation	 extobl_r/activation	    abd_r/activation	    add_r/activation	hamstrings_r/activation	bifemsh_r/activation	glut_max_r/activation	iliopsoas_r/activation	rect_fem_r/activation	  vasti_r/activation	gastroc_r/activation	 soleus_r/activation	tib_ant_r/activation	 ercspn_l/activation	 intobl_l/activation	 extobl_l/activation	    abd_l/activation	    add_l/activation	hamstrings_l/activation	bifemsh_l/activation	glut_max_l/activation	iliopsoas_l/activation	rect_fem_l/activation	  vasti_l/activation	gastroc_l/activation	 soleus_l/activation	tib_ant_l/activation	
          0.00000000	         -2.63628379	         -2.70033034	          8.19586667	          0.00000000	          0.99308466	         -0.00526636	         27.59159095	          0.12146593	         -7.27320011	         -6.56826336	          3.59057441	          0.22166251	        -13.53473685	         -4.25777749	         -2.10140629	        -11.70263682	          7.25475179	         33.66333643	        -14.22646492	          1.01835215	         -3.66692973	          0.03875228	          0.17415326	          0.04238235	          0.01752454	          0.20005545	          0.05251358	          0.06667848	          0.01539267	          0.10963297	          0.03238387	          0.02058325	          0.01202545	          0.01032409	          0.32838887	          0.01000000	          0.00999999	          0.00999999	          0.02673444	          0.00999999	          0.01487542	          0.25782523	          0.01446017	          0.01533869	          0.01000000	          0.00999999	          0.17502066	          0.28171901	          0.01202503	
          0.01215026	         -2.65528706	         -2.68438453	          8.14942316	          0.01906663	          0.99121617	         -0.00466642	         27.40966727	          0.30046968	         -7.35266794	         -7.70491307	          3.21266929	          0.24539626	        -14.31209617	         -4.40236424	         -2.56922310	        -12.18034223	          6.04478274	         35.38931300	        -13.81051108	          1.29944946	         -3.79552003	          0.03222631	          0.14482548	          0.03524508	          0.01457337	          0.24561305	          0.04367018	          0.05544968	          0.10691323	          0.09117055	          0.02693037	          0.02050871	          0.01000034	          0.00999999	          0.33685387	          0.02986759	          0.01000000	          0.01000000	          0.02223230	          0.03481907	          0.03820074	          0.21440693	          0.01202505	          0.09092994	          0.01000001	          0.01000000	          0.14554681	          0.25681282	          0.00999999	
          0.02430052	         -2.65263410	         -2.67557071	          8.07100704	          0.03861375	          0.98943481	         -0.00403981	         27.12037282	          0.44539116	         -7.30652405	         -9.20215045	          2.98376405	          0.20486099	        -14.95975329	         -4.55950510	         -3.05882130	        -12.97333242	          4.74779443	         37.09106633	        -13.35594271	          1.59589016	         -3.91054014	          0.02679934	          0.12043656	          0.02930973	          0.10359954	          0.23158982	          0.05476732	          0.04611184	          0.10002821	          0.07581723	          0.02239524	          0.01705500	          0.01396982	          0.01202504	          0.36093252	          0.02483785	          0.00999999	          0.01000000	          0.01848834	          0.02895547	          0.03176773	          0.17830036	          0.01000001	          0.10076430	          0.01000000	          0.01000000	          0.12103642	          0.22425742	          0.00999999	
          0.03645077	         -2.63383512	         -2.66250887	          7.95397329	          0.05832882	          0.98793415	         -0.00334272	         26.78305326	          0.58045287	         -7.28244696	        -10.65647023	          2.60114618	          0.20368930	        -15.37454884	         -4.72221845	         -3.56469143	        -14.21734485	          3.34754270	         38.71263971	        -12.89721560	          1.89018787	         -4.00255460	          0.02228629	          0.10015478	          0.02437391	          0.16245390	          0.24801299	          0.04979333	          0.03834652	          0.11575358	          0.06304945	          0.01862384	          0.01418293	          0.01161727	          0.01000000	          0.39180794	          0.03905648	          0.00999999	          0.01000000	          0.01537486	          0.02407931	          0.02827330	          0.14827420	          0.00999999	          0.12160427	          0.01000000	          0.00999999	          0.10065362	          0.18649199	          0.00999999	
          0.04860103	         -2.60047013	         -2.64843772	          7.80033610	          0.07791279	          0.98687413	         -0.00256973	         26.52875780	          0.70335034	         -7.30792513	        -12.25241963	          2.17711878	          0.17381172	        -15.45769082	         -4.90113578	         -4.07525109	        -16.04880593	          1.86225668	         40.12188672	        -12.46726034	          2.18682896	         -4.06686154	          0.02090954	          0.08328850	          0.02026929	          0.20052400	          0.27583312	          0.05540807	          0.03188889	          0.11910645	          0.05243179	          0.01548755	          0.10049616	          0.01000000	          0.00999999	          0.41512859	          0.05807126	          0.00999999	          0.01000000	          0.01278570	          0.06994890	          0.03070738	          0.12330451	          0.00999999	          0.15060174	          0.01000000	          0.00999999	          0.08370334	          0.15508634	          0.00999999	
